<?xml version="1.0" encoding="UTF-8" standalone="no"?><!-- Generator: Gravit.io --><svg xmlns="http://www.w3.org/2000/svg" xmlns:xlink="http://www.w3.org/1999/xlink" style="isolation:isolate" viewBox="0 0 800 200" width="800pt" height="200pt"><defs><clipPath id="_clipPath_J2deEGsrAwCwQWLb78tuNYr4FZu98qVL"><rect width="800" height="200"/></clipPath></defs><g clip-path="url(#_clipPath_J2deEGsrAwCwQWLb78tuNYr4FZu98qVL)"><g><path d=" M 325.899 64.221 L 337.436 87.898 L 363.518 91.554 L 344.566 109.843 L 349.148 135.779 L 325.899 123.406 L 302.648 135.779 L 307.23 109.843 L 288.278 91.554 L 314.361 87.898 L 325.899 64.221 Z " fill-rule="evenodd" fill="rgb(255,193,7)"/><path d=" M 405.027 38.381 L 416.564 62.057 L 442.646 65.714 L 423.694 84.003 L 428.276 109.939 L 405.027 97.566 L 381.776 109.939 L 386.358 84.003 L 367.406 65.714 L 393.489 62.057 L 405.027 38.381 Z " fill-rule="evenodd" fill="rgb(255,193,7)"/><path d=" M 486.204 64.221 L 497.741 87.898 L 523.823 91.554 L 504.871 109.843 L 509.453 135.779 L 486.204 123.406 L 462.953 135.779 L 467.535 109.843 L 448.583 91.554 L 474.666 87.898 L 486.204 64.221 Z " fill-rule="evenodd" fill="rgb(195,207,217)"/><path d=" M 567.381 90.061 L 578.919 113.738 L 605 117.394 L 586.048 135.683 L 590.63 161.619 L 567.381 149.246 L 544.13 161.619 L 548.712 135.683 L 529.76 117.394 L 555.843 113.738 L 567.381 90.061 Z " fill-rule="evenodd" fill="rgb(195,207,217)"/><path d=" M 246.621 90.061 L 258.158 113.738 L 284.24 117.394 L 265.288 135.683 L 269.87 161.619 L 246.621 149.246 L 223.37 161.619 L 227.952 135.683 L 209 117.394 L 235.083 113.738 L 246.621 90.061 Z " fill-rule="evenodd" fill="rgb(255,193,7)"/></g></g></svg>