<?xml version="1.0" encoding="UTF-8" standalone="no"?><!-- Generator: Gravit.io --><svg xmlns="http://www.w3.org/2000/svg" xmlns:xlink="http://www.w3.org/1999/xlink" style="isolation:isolate" viewBox="0 0 50 50" width="50pt" height="50pt"><defs><clipPath id="_clipPath_6aO6r7RGg76AZhidmIPTdJ3VKDJRQFMi"><rect width="50" height="50"/></clipPath></defs><g clip-path="url(#_clipPath_6aO6r7RGg76AZhidmIPTdJ3VKDJRQFMi)"><g style="isolation:isolate"><path d=" M 25 0.382 L 29.339 5.987 L 35.681 2.819 L 37.158 9.753 L 44.246 9.65 L 42.57 16.538 L 49 19.522 L 44.5 25 L 49 30.478 L 42.57 33.462 L 44.246 40.349 L 37.158 40.246 L 35.681 47.18 L 29.339 44.013 L 25 49.618 L 20.661 44.013 L 14.319 47.18 L 12.842 40.246 L 5.754 40.349 L 7.43 33.462 L 1 30.478 L 5.5 25 L 1 19.522 L 7.43 16.538 L 5.754 9.65 L 12.842 9.753 L 14.319 2.819 L 20.661 5.987 L 25 0.382 Z " fill-rule="evenodd" fill="rgb(255,193,7)"/><text transform="matrix(0.249,0,0,0.249,12.078,23.047)" style="font-family:'Roboto';font-weight:700;font-size:36px;font-style:italic;fill:#ffffff;stroke:none;">Online</text><text transform="matrix(0.249,0,0,0.249,8.356,33.561)" style="font-family:'Roboto';font-weight:700;font-size:36px;font-style:italic;fill:#ffffff;stroke:none;">Reviews</text></g></g></svg>